<svg width="24" height="24" viewBox="0 0 24 24" fill="none" xmlns="http://www.w3.org/2000/svg">
  <!-- Forma principal de la muela -->
  <path d="M12 2C9 2 7 4 7 7C7 8 7.5 9 8 10C8.5 11 9 12 9.5 13C10 14 10.5 15 11 16C11.5 17 12 18 12.5 17C13 16 13.5 15 14 14C14.5 13 15 12 15.5 11C16 10 16.5 9 17 8C17 7 17 4 15 2 12 2Z" fill="white" stroke="#e5e7eb" stroke-width="0.5"/>
  
  <!-- Corona de la muela -->
  <path d="M8 6C8 5.5 8.5 5 9 5C9.5 5 10 5.5 10 6C10 6.5 9.5 7 9 7C8.5 7 8 6.5 8 6Z" fill="#f3f4f6"/>
  <path d="M14 6C14 5.5 14.5 5 15 5C15.5 5 16 5.5 16 6C16 6.5 15.5 7 15 7C14.5 7 14 6.5 14 6Z" fill="#f3f4f6"/>
  
  <!-- Raíces de la muela -->
  <path d="M10 16C10 15.5 10.5 15 11 15C11.5 15 12 15.5 12 16C12 16.5 11.5 17 11 17C10.5 17 10 16.5 10 16Z" fill="#f3f4f6"/>
  <path d="M12 16C12 15.5 12.5 15 13 15C13.5 15 14 15.5 14 16C14 16.5 13.5 17 13 17C12.5 17 12 16.5 12 16Z" fill="#f3f4f6"/>
  
  <!-- Detalles de la superficie -->
  <circle cx="10" cy="8" r="0.8" fill="#e5e7eb"/>
  <circle cx="14" cy="8" r="0.8" fill="#e5e7eb"/>
  <circle cx="12" cy="12" r="1" fill="#e5e7eb"/>
</svg>
