<svg width="24" height="24" viewBox="0 0 24 24" fill="none" xmlns="http://www.w3.org/2000/svg">
  <!-- Main tooth crown -->
  <path d="M12 1.5C15.5 1.5 18.5 3.5 18.5 7C18.5 8.5 17.5 9.5 16 9.5C15 9.5 14.5 9 14.5 8C14.5 7 14 6.5 13 6.5C12 6.5 11.5 7 11.5 8C11.5 9 11 9.5 10 9.5C8.5 9.5 7.5 8.5 7.5 7C7.5 3.5 10.5 1.5 12 1.5Z" fill="white"/>
  
  <!-- Left root -->
  <path d="M9 9.5C8.5 9.5 8 10 8 11.5C8 13 8.5 14 9 14.5C9.5 15 10 15.5 10 16.5C10 17.5 10.5 18 11 18.5C11.5 19 12 19.5 12 20.5C12 21.5 12.5 22 13 22.5C13.5 23 14 23.5 14 22.5C14 21.5 13.5 21 13 20.5C12.5 20 12 19.5 12 18.5C12 17.5 11.5 17 11 16.5C10.5 16 10 15.5 10 14.5C10 13.5 9.5 13 9 12.5C8.5 12 8 11.5 8 10.5C8 10 8.5 9.5 9 9.5Z" fill="white"/>
  
  <!-- Right root -->
  <path d="M15 9.5C15.5 9.5 16 10 16 11.5C16 13 15.5 14 15 14.5C14.5 15 14 15.5 14 16.5C14 17.5 13.5 18 13 18.5C12.5 19 12 19.5 12 20.5C12 21.5 11.5 22 11 22.5C10.5 23 10 23.5 10 22.5C10 21.5 10.5 21 11 20.5C11.5 20 12 19.5 12 18.5C12 17.5 12.5 17 13 16.5C13.5 16 14 15.5 14 14.5C14 13.5 14.5 13 15 12.5C15.5 12 16 11.5 16 10.5C16 10 15.5 9.5 15 9.5Z" fill="white"/>
  
  <!-- Tooth surface details -->
  <path d="M12 3C14 3 15.5 4 15.5 5.5C15.5 6 15 6.5 14.5 6.5C14 6.5 13.5 6 13.5 5.5C13.5 5 13 4.5 12.5 4.5C12 4.5 11.5 5 11.5 5.5C11.5 6 11 6.5 10.5 6.5C10 6.5 9.5 6 9.5 5.5C9.5 4 11 3 12 3Z" fill="url(#surfaceGradient)" opacity="0.4"/>
  
  <!-- Highlight -->
  <path d="M12 2C13.5 2 14.5 2.5 14.5 3.5C14.5 4 14 4.5 13.5 4.5C13 4.5 12.5 4 12.5 3.5C12.5 3 12 2.5 12 2Z" fill="url(#highlightGradient)" opacity="0.6"/>
  
  <defs>
    <!-- Surface gradient for 3D effect -->
    <linearGradient id="surfaceGradient" x1="0%" y1="0%" x2="100%" y2="100%">
      <stop offset="0%" style="stop-color:white;stop-opacity:0.2" />
      <stop offset="100%" style="stop-color:white;stop-opacity:0.6" />
    </linearGradient>
    
    <!-- Highlight gradient -->
    <linearGradient id="highlightGradient" x1="0%" y1="0%" x2="100%" y2="0%">
      <stop offset="0%" style="stop-color:white;stop-opacity:0.8" />
      <stop offset="100%" style="stop-color:white;stop-opacity:0.4" />
    </linearGradient>
  </defs>
</svg>